<svg width="125" height="96" viewBox="0 0 125 96" fill="none" xmlns="http://www.w3.org/2000/svg">
<path d="M32.6806 73.5291C32.6256 62.7255 32.7204 51.8936 32.6806 41.0868H25.3667C25.327 51.8905 25.4218 62.7223 25.3667 73.5291C18.5607 73.1127 12.3296 68.0678 11.6964 60.8215C11.1489 54.5554 10.8124 32.6004 11.932 27.0827C13.1739 20.9607 19.1816 16.564 25.1037 16.11C34.9289 15.3584 44.4819 17.7884 45.7911 29.4126C46.5895 36.4929 46.4702 52.094 45.8615 59.3215C45.2313 66.8058 40.1688 72.8778 32.6806 73.5291Z" fill="white"/>
<path d="M32.627 72.8854C32.6545 77.9379 32.6087 83.015 32.627 88.0705H55.5161V78.7646H51.1345V71.4163H55.5191V65.5371H63.3108V71.4163L68.386 71.4225L68.6671 65.5371H76.4588V71.4163L82.0229 71.4225L82.304 65.5371H89.6098V71.4163L95.1739 71.4225L95.455 65.5371H102.761V71.4163L108.325 71.4225L108.606 65.5371H115.912V71.4163H121.268V78.7646H115.912V88.0705H124.678V95.9074H0V88.0705H25.3243C25.3426 83.018 25.2968 77.9409 25.3243 72.8854C27.4846 73.0144 30.5004 73.0667 32.6301 72.8854H32.627ZM68.6641 78.7646H63.3077V88.0705H68.6641V78.7646ZM82.301 88.0705V79.4991C80.8862 78.0639 78.3349 79.0197 76.4557 78.7646V88.0705H82.301ZM95.4489 78.7646H89.6037V88.0705H95.4489V78.7646ZM108.597 78.7646H102.752V88.0705H108.597V78.7646Z" fill="white"/>
<path d="M108.035 10.1376C117.462 9.91869 122.162 21.0957 114.335 26.9152L82.6955 27.1737C79.7039 27.046 78.2266 23.3852 78.3281 20.7916C78.522 15.8143 82.9633 12.5366 87.8601 13.1143C86.6412 -0.166721 104.96 -3.00353 108.038 10.1376H108.035Z" fill="white"/>
<path d="M72.3242 20.7797C65.2238 18.8882 61.6331 11.5158 65.548 5.05224C68.5309 0.127043 75.6967 -1.60476 80.528 1.69303C86.313 5.64179 81.0205 6.66429 78.0531 9.05012C74.4281 11.9641 72.1808 16.0787 72.3273 20.7797H72.3242Z" fill="white"/>
</svg>
