<svg width="89" height="123" viewBox="0 0 89 123" fill="none" xmlns="http://www.w3.org/2000/svg">
<path d="M42.3394 123C38.5581 122.11 36.2361 119.627 34.351 116.322C25.3971 100.622 16.3215 84.9911 7.2646 69.3504C3.86421 63.4784 1.36108 57.281 0.432805 50.5322C-0.722581 42.1358 0.436527 34.0398 3.89524 26.2878C6.64533 20.1226 10.5942 14.8366 15.7569 10.508C22.1456 5.15251 29.4689 1.78001 37.739 0.523396C44.1563 -0.45135 50.4892 -0.0689017 56.7278 1.70675C63.052 3.506 68.7036 6.578 73.6652 10.893C79.9062 16.3217 84.2957 22.9972 86.8584 30.8548C88.7286 36.589 89.3479 42.4847 88.818 48.4909C88.118 56.4291 85.1483 63.5578 81.1733 70.3761C72.1126 85.9224 63.1264 101.512 54.1688 117.118C52.4301 120.147 49.9891 122.095 46.6594 123H42.3407H42.3394ZM44.4368 57.4411C53.3485 57.466 60.4843 50.4155 60.524 41.5459C60.5638 32.6044 53.4416 25.3863 44.5609 25.3689C35.6988 25.3515 28.5133 32.4665 28.4723 41.3001C28.4301 50.264 35.5052 57.4163 44.4368 57.4411Z" fill="white"/>
</svg>
