<svg width="115" height="114" viewBox="0 0 115 114" fill="none" xmlns="http://www.w3.org/2000/svg">
<path d="M91.6188 0.239096C92.4468 0.795956 92.8439 1.55135 92.5001 2.52464C92.1417 3.54152 91.2653 3.65289 90.3211 3.65289C67.0927 3.6432 43.8692 3.64805 20.6409 3.64805C19.4465 3.64805 18.8477 4.25494 18.8444 5.46874C18.8444 34.9097 18.8444 64.3506 18.8444 93.7867C18.8444 95.0264 19.4772 95.6462 20.7426 95.6462C50.1835 95.6462 79.6245 95.6462 109.061 95.6462C110.252 95.6462 110.847 95.036 110.847 93.8158C110.847 77.8024 110.847 61.7891 110.847 45.7709C110.847 44.1923 110.847 44.1826 109.259 44.1875C106.664 44.1971 107.037 43.9647 107.003 46.4343C107.003 46.7684 107.003 47.0977 107.003 47.4318C106.983 50.003 105.54 51.4896 102.94 51.5186C99.9087 51.5525 96.8726 51.5235 93.8414 51.5283C92.3451 51.5283 92.3306 51.5332 92.3403 52.9762C92.3548 55.5183 92.0497 55.2133 94.5871 55.2278C97.3617 55.2423 100.136 55.223 102.911 55.2327C105.564 55.2423 107.003 56.7047 107.003 59.3728C107.003 68.8394 107.003 78.3109 107.003 87.7775C107.003 90.5134 105.579 91.9322 102.819 91.9322C92.1659 91.937 81.5178 91.937 70.8648 91.9322C68.1193 91.9322 66.7102 90.4988 66.7005 87.7436C66.6957 85.8212 66.6618 83.894 66.715 81.9765C66.7392 81.0855 66.4003 80.8434 65.5529 80.8434C62.8654 80.8434 62.8654 80.8143 62.8606 83.5405C62.8606 85.0949 62.8751 86.6492 62.8557 88.1988C62.8267 90.3391 61.3885 91.8159 59.2628 91.9273C59.0061 91.9418 58.7447 91.937 58.488 91.937C47.9852 91.937 37.4823 91.937 26.9794 91.937C23.9579 91.937 22.5633 90.5473 22.5584 87.5354C22.5584 78.214 22.5584 68.8975 22.5584 59.5762C22.5584 56.6756 24.0063 55.2327 26.9359 55.2327C37.5114 55.2327 48.0917 55.2327 58.6672 55.2327C61.4515 55.2327 62.8461 56.6175 62.8606 59.3728C62.8606 59.5229 62.8606 59.6682 62.8606 59.8183C62.8606 62.8059 62.8606 62.7963 65.8337 62.5687C66.4293 62.5251 66.715 62.3169 66.7005 61.7019C66.6811 60.8158 66.686 59.9248 66.7005 59.0387C66.7441 56.8015 68.2307 55.3004 70.4726 55.2375C71.3249 55.2133 72.1723 55.2084 73.0245 55.2375C73.7073 55.2617 74.0462 55.0341 74.0365 54.2884C73.9833 50.9763 74.4142 51.5719 71.3975 51.538C68.0128 51.4993 66.7005 50.2161 66.7005 46.8459C66.7005 46.6231 66.7005 46.4004 66.7005 46.1825C66.7005 44.8557 66.0468 44.1923 64.7394 44.1923C64.444 44.1923 64.1486 44.2117 63.8533 44.1923C63.156 44.1487 62.8267 44.4296 62.8606 45.1608C62.8945 45.9743 62.8751 46.7878 62.8606 47.6012C62.8315 49.8965 61.4902 51.4605 59.2095 51.4944C53.8491 51.5719 48.4839 51.538 43.1235 51.509C41.8888 51.5041 41.1382 50.7439 41.1285 49.7173C41.1237 48.6472 41.913 47.916 43.2107 47.9063C48.1304 47.8869 53.0502 47.8627 57.9651 47.9208C59.0981 47.9354 59.471 47.5964 59.3887 46.473C59.2967 45.2237 59.3596 43.9599 59.3742 42.7009C59.3935 41.2143 59.994 40.517 61.4466 40.5897C62.6766 40.6526 63.0494 40.2265 63.001 39.0208C62.9478 37.7521 63.7709 36.8902 64.7781 36.8853C65.8483 36.8756 66.6472 37.7472 66.5746 39.0934C66.5117 40.2701 66.899 40.6478 68.0709 40.5897C69.5429 40.517 70.1869 41.1368 70.2789 42.6089C70.3613 43.8969 70.3806 45.1995 70.2983 46.4875C70.2257 47.64 70.6712 47.9886 71.7704 47.9112C72.947 47.8288 74.1382 47.8821 75.3197 47.8966C76.9274 47.916 77.6827 48.5697 77.6295 50.187C77.5907 51.4073 78.0411 51.7075 79.1693 51.6542C80.5203 51.5913 81.266 52.2934 81.2515 53.3878C81.237 54.4579 80.4525 55.1794 79.1209 55.0922C77.9103 55.0148 77.6101 55.4748 77.6343 56.6079C77.6682 58.1332 76.8983 58.8256 75.3633 58.8547C74.0317 58.8837 72.7001 58.8886 71.3684 58.8547C70.6082 58.8353 70.2983 59.1307 70.3128 59.8958C70.3419 61.1886 70.3419 62.4864 70.308 63.7793C70.2596 65.537 69.6107 66.2052 67.853 66.1713C66.8797 66.152 66.4923 66.4619 66.5891 67.44C66.6279 67.8322 66.5601 68.2583 66.4342 68.636C66.1679 69.4156 65.5771 69.8272 64.7394 69.8079C63.9501 69.7885 63.4078 69.3721 63.1511 68.6409C63.0301 68.3019 62.9478 67.9097 62.9865 67.5562C63.0979 66.4812 62.6621 66.1423 61.6016 66.1713C59.9988 66.2149 59.3887 65.5467 59.379 63.9681C59.3693 62.6365 59.3403 61.3049 59.3887 59.9732C59.4177 59.1743 59.1611 58.8547 58.3186 58.8547C47.961 58.874 37.6082 58.874 27.2506 58.8547C26.3984 58.8547 26.1853 59.2082 26.1853 59.9878C26.1998 69.0476 26.2047 78.1123 26.1853 87.1722C26.1853 88.0583 26.5194 88.315 27.362 88.315C37.6421 88.2956 47.9271 88.2956 58.2072 88.315C59.1466 88.315 59.4081 87.9712 59.3935 87.0802C59.3499 84.601 59.3742 82.1266 59.379 79.6473C59.3838 77.9622 59.902 77.3424 61.6016 77.294C62.6475 77.2649 63.0252 76.9405 63.0059 75.8752C62.9816 74.4806 63.7419 73.6526 64.8072 73.6575C65.8918 73.6623 66.6376 74.4952 66.5843 75.8801C66.5455 76.955 66.9329 77.2698 67.974 77.2988C69.7318 77.3521 70.3031 78.0203 70.3177 79.8265C70.3419 82.2283 70.3564 84.6349 70.308 87.0366C70.2886 88.0002 70.613 88.3247 71.5863 88.3198C81.7551 88.2908 91.9287 88.2908 102.097 88.3198C103.153 88.3198 103.415 87.9276 103.415 86.9495C103.39 78.0349 103.385 69.1251 103.419 60.2105C103.419 59.1113 103.027 58.8305 101.991 58.845C98.4415 58.8934 94.8921 58.8692 91.3379 58.8595C89.372 58.8547 88.7231 58.2542 88.7279 56.2834C88.7279 55.3392 88.3745 55.0148 87.4835 55.1116C87.193 55.1455 86.8879 55.131 86.5974 55.0825C85.6918 54.9373 85.0769 54.1916 85.1301 53.2861C85.1834 52.3418 85.7015 51.7995 86.6312 51.6494C86.7765 51.6252 86.9266 51.63 87.0719 51.6252C88.0888 51.5864 88.6359 51.0376 88.7134 49.9788C88.8151 48.5649 89.4785 47.9015 90.907 47.8918C94.6403 47.8724 98.3786 47.8579 102.112 47.9015C103.066 47.9112 103.458 47.6206 103.41 46.6376C103.352 45.3835 103.366 44.1197 103.41 42.8655C103.477 41.1417 104.092 40.517 105.821 40.5751C106.882 40.609 107.235 40.2071 107.104 39.2241C107.09 39.1176 107.104 39.0014 107.104 38.89C107.187 37.6843 107.903 36.8805 108.901 36.8708C109.879 36.866 110.629 37.6891 110.721 38.8755C110.847 40.4541 110.847 40.4831 112.45 40.5364C113.239 40.5606 113.748 40.9964 114.247 41.4952V101.854C113.714 102.687 112.997 103.132 112 102.789C111.041 102.459 110.838 101.665 110.838 100.74C110.838 99.2537 110.818 99.2537 109.293 99.2537C79.6778 99.2537 50.0625 99.2537 20.4424 99.2537C19.4352 99.2537 18.8977 99.7395 18.8299 100.711C18.7331 102.106 18.0455 102.919 16.9705 102.905C15.8858 102.89 15.1643 102.067 15.2369 100.663C15.2951 99.5297 14.9222 99.1713 13.7988 99.2294C12.3945 99.3021 11.5714 98.5806 11.5568 97.4911C11.5423 96.4161 12.3558 95.7285 13.7552 95.6365C14.7269 95.5719 15.2127 95.0344 15.2127 94.024C15.2127 64.4087 15.2127 34.7935 15.2127 5.17336C15.2127 3.65289 15.2127 3.63352 13.7213 3.63352C12.7965 3.63352 12.0072 3.4253 11.6779 2.46654C11.3341 1.46419 11.7796 0.752375 12.6124 0.219727H91.6139L91.6188 0.239096Z" fill="white"/>
<path d="M114.253 28.4221C113.696 29.2647 112.868 29.4874 111.929 29.3809C111.004 29.2744 110.626 29.6666 110.733 30.5769C110.752 30.7222 110.733 30.8723 110.728 31.0224C110.641 32.2862 109.89 33.1094 108.854 33.0949C107.822 33.0755 107.149 32.2475 107.101 30.9352C107.065 29.9248 106.567 29.4083 105.605 29.3857C104.157 29.3567 103.59 28.8531 103.435 27.4343C103.387 26.9936 103.392 26.5482 103.392 26.1075C103.392 21.5606 103.372 17.0089 103.406 12.462C103.416 11.479 103.121 11.082 102.079 11.0868C91.9107 11.1159 81.742 11.111 71.5732 11.0868C70.5951 11.0868 70.2948 11.45 70.2997 12.3942C70.3336 16.9799 70.3142 21.5655 70.3094 26.1511C70.3094 26.5966 70.3142 27.0421 70.2609 27.4779C70.0963 28.8385 69.5201 29.347 68.1546 29.3809C67.1377 29.4067 66.6163 29.9006 66.5905 30.8626C66.5518 32.2475 65.8642 33.0997 64.7989 33.0901C63.7191 33.0804 62.9443 32.2427 62.9879 30.8723C63.0218 29.7344 62.7119 29.2889 61.5013 29.3567C59.9615 29.439 59.3659 28.7756 59.3659 27.2164C59.3562 22.2967 59.332 17.3818 59.3852 12.462C59.3949 11.3725 59.0269 11.082 57.981 11.082C47.851 11.111 37.7161 11.111 27.5861 11.082C26.5547 11.082 26.1576 11.358 26.1625 12.4572C26.1964 23.8462 26.1964 35.2352 26.1625 46.6242C26.1625 47.6895 26.5547 47.9364 27.528 47.9171C30.1525 47.8638 32.777 47.8977 35.4015 47.9025C35.7356 47.9025 36.0746 47.8832 36.3942 47.9461C37.3433 48.1301 37.9292 48.7063 37.9389 49.6893C37.9534 50.619 37.4256 51.205 36.5201 51.418C36.2344 51.4858 35.9342 51.5245 35.6436 51.5245C32.6124 51.5342 29.5811 51.5584 26.545 51.5245C24.0513 51.4955 22.5453 49.9508 22.5405 47.4667C22.5308 35.487 22.5308 23.5072 22.5405 11.5226C22.5405 8.93201 24.0174 7.49386 26.6225 7.49386C37.3481 7.49386 48.0689 7.49386 58.7945 7.49386C61.4432 7.49386 62.8329 8.8739 62.8378 11.5081C62.8474 15.871 62.8717 20.2338 62.8184 24.5967C62.8087 25.6378 63.1622 25.9283 64.1645 25.9138C66.6777 25.8751 66.6777 25.9138 66.6777 23.3716C66.6777 19.4155 66.6728 15.4594 66.6777 11.5033C66.6825 8.96107 68.1304 7.4987 70.658 7.4987C81.4563 7.49386 92.2545 7.49386 103.048 7.4987C105.513 7.4987 106.97 8.96591 106.975 11.4355C106.985 15.7983 107.004 20.1612 106.956 24.5241C106.946 25.5507 107.183 25.9622 108.297 25.9332C110.82 25.8654 110.82 25.9235 110.82 23.4007C110.82 17.3721 110.82 11.3483 110.82 5.31969C110.82 4.20919 110.281 3.65395 109.202 3.65395C105.503 3.65395 101.808 3.63942 98.1088 3.66363C97.1646 3.66847 96.3123 3.5571 95.891 2.57412C95.4601 1.57178 96.0121 0.879332 96.6949 0.249838C102.278 0.249838 107.866 0.264365 113.449 0.230469C114.112 0.230469 114.248 0.366052 114.243 1.0246C114.214 10.1619 114.224 19.2944 114.224 28.4318L114.253 28.4221Z" fill="white"/>
<path d="M0.641113 8.45151C1.24155 7.69128 2.02116 7.45401 2.98477 7.47822C5.09115 7.52664 7.19754 7.48306 9.30392 7.49759C10.6259 7.50727 11.328 8.0835 11.3861 9.14396C11.4442 10.2141 10.8002 10.8775 9.52666 11.047C9.19739 11.0905 8.86327 11.1002 8.534 11.1148C8.0304 11.1341 7.80282 11.4005 7.80766 11.8944C7.80766 12.1897 7.79798 12.4851 7.79798 12.7805C7.79798 37.3937 7.79798 62.0021 7.79798 86.6153C7.79798 88.0196 7.51712 88.3537 9.38139 88.3343C10.6404 88.3198 11.357 89.0413 11.3764 90.0969C11.3958 91.2058 10.6501 91.9127 9.33782 91.9321C7.12006 91.9612 4.9023 91.9273 2.68455 91.9515C1.83231 91.9612 1.20282 91.5738 0.641113 91.0072V89.4529C1.08176 88.6636 1.76936 88.344 2.65549 88.3101C4.15175 88.252 4.15659 88.2374 4.15659 86.746C4.15659 74.0254 4.15659 61.3048 4.15659 48.5842C4.15659 36.5657 4.14691 24.5472 4.17596 12.5287C4.17596 11.5118 3.93385 11.0179 2.82497 11.076C1.93884 11.1244 1.14471 10.8194 0.641113 10.0059V8.45151Z" fill="white"/>
<path d="M23.4883 113.859C22.7425 113.195 22.515 112.358 22.5343 111.37C22.5779 109.375 22.5343 107.38 22.5537 105.385C22.5634 103.894 23.2219 103.109 24.3938 103.128C25.5172 103.148 26.1951 103.903 26.1563 105.341C26.1273 106.402 26.4662 106.731 27.5412 106.731C52.3772 106.707 77.2083 106.707 102.044 106.731C103.037 106.731 103.502 106.455 103.41 105.419C103.381 105.094 103.458 104.751 103.545 104.436C103.797 103.535 104.407 103.075 105.347 103.124C106.296 103.177 106.93 103.724 106.954 104.644C107.017 107.23 106.988 109.816 106.969 112.401C106.969 113.055 106.446 113.433 106.044 113.859H104.49C103.637 113.326 103.371 112.489 103.415 111.564C103.463 110.552 103.003 110.329 102.083 110.334C77.1986 110.353 52.3142 110.353 27.4299 110.334C26.4372 110.334 26.1031 110.678 26.1805 111.627C26.2629 112.581 25.9288 113.37 25.0475 113.864H23.4931L23.4883 113.859Z" fill="white"/>
<path d="M0.635507 104.098C1.75891 102.801 2.66442 102.762 3.91372 103.91C4.58679 104.524 5.09039 105.633 5.95715 105.653C6.83844 105.677 7.33235 104.549 8.00543 103.934C9.0562 102.975 10.1748 102.844 10.9253 103.648C11.6468 104.418 11.5161 105.493 10.5621 106.486C10.1021 106.965 9.64211 107.449 9.15304 107.895C8.64461 108.355 8.69787 108.742 9.17726 109.183C9.66633 109.628 10.1312 110.108 10.5864 110.592C11.7533 111.822 11.6952 112.742 10.4023 113.865H8.84798C8.10228 113.149 7.3372 112.456 6.6157 111.715C6.146 111.236 5.77799 111.255 5.31797 111.725C4.59648 112.461 3.82656 113.153 3.08085 113.865C2.26735 113.865 1.13426 114.185 0.72751 113.778C0.32076 113.371 0.640349 112.238 0.640349 111.425C1.35216 110.674 2.04461 109.909 2.78063 109.188C3.25033 108.728 3.2697 108.355 2.79031 107.89C2.04945 107.168 1.35216 106.403 0.640349 105.658C0.640349 105.139 0.640349 104.621 0.640349 104.103L0.635507 104.098Z" fill="white"/>
<path d="M0.641113 96.7691C0.970387 96.2558 1.38198 95.8394 2.01632 95.7522C3.41089 95.5682 4.81514 95.5537 6.20003 95.7425C7.16848 95.8733 7.8125 96.7449 7.75439 97.6068C7.69144 98.493 6.97963 99.2048 5.97244 99.2483C4.75703 99.3016 3.54163 99.258 2.32622 99.2629C1.58535 99.2629 1.1205 98.7786 0.641113 98.3186V96.7643V96.7691Z" fill="white"/>
<path d="M16.1735 113.857C15.4423 113.243 15.1517 112.468 15.2098 111.509C15.268 110.555 15.2002 109.591 15.2389 108.638C15.2825 107.553 15.9604 106.807 16.8853 106.744C17.7859 106.681 18.6575 107.374 18.7738 108.4C18.9239 109.717 18.9093 111.049 18.7641 112.371C18.6914 113.044 18.275 113.504 17.723 113.857H16.1686H16.1735Z" fill="white"/>
<path d="M6.84805 0.240447C7.37101 0.816676 7.92303 1.38806 7.69544 2.2742C7.59375 2.6761 7.38554 3.0199 7.05626 3.28139C6.00065 4.11426 1.55546 3.69782 0.630584 2.68095C0.630584 1.86745 0.310993 0.734357 0.717743 0.327607C1.12449 -0.0791427 2.25758 0.240447 3.07108 0.240447H6.84321H6.84805Z" fill="white"/>
<path d="M111.81 113.858C111.074 113.35 110.793 112.653 110.837 111.766C110.88 110.924 110.861 110.072 110.837 109.229C110.813 108.27 110.861 107.37 111.902 106.905C112.909 106.455 113.582 107.031 114.246 107.646C114.246 109.534 114.226 111.418 114.26 113.306C114.27 113.786 114.173 113.916 113.689 113.873C113.064 113.82 112.435 113.858 111.805 113.858H111.81Z" fill="white"/>
</svg>
